<svg
          width="91"
          height="91"
          viewBox="0 0 91 91"
          fill="none"
          xmlns="http://www.w3.org/2000/svg"
        >
          <path
            d="M0.119995 0.688324H22.904C38.8613 0.773656 47.5653 0.944323 49.016 1.20033C49.1867 1.28566 49.6133 1.37099 50.296 1.45632C58.0613 2.90699 64.2907 5.97899 68.984 10.6723C72.2267 13.915 74.2747 17.499 75.128 21.4243C75.4693 23.387 75.4693 25.4777 75.128 27.6963C74.1893 31.963 71.8 35.675 67.96 38.8323C65.144 41.2217 61.9013 43.099 58.232 44.4643L56.824 45.1043L57.848 45.6163C63.8213 49.2857 67.4053 54.107 68.6 60.0803L69.88 67.1203C70.5627 71.7283 70.9893 74.2883 71.16 74.8003C72.3547 80.7737 74.5733 84.059 77.816 84.6563C78.2427 84.7417 78.712 84.7843 79.224 84.7843C80.0773 84.7843 80.6747 84.699 81.016 84.5283C83.1493 83.5897 84.344 81.0723 84.6 76.9763C84.6853 75.6963 85.0267 74.971 85.624 74.8003C85.9653 74.715 86.6907 74.6723 87.8 74.6723C89.7627 74.6723 90.8293 75.0137 91 75.6963C91 76.0377 91 76.5497 91 77.2323C90.6587 82.6937 88.6107 86.7043 84.856 89.2643C83.7467 89.947 82.5947 90.4163 81.4 90.6723C78.2427 91.355 73.8907 90.971 68.344 89.5203C67.9173 89.435 67.5333 89.3497 67.192 89.2643C60.28 87.0457 56.0987 82.779 54.648 76.4643C54.4773 75.7817 54.3493 72.7097 54.264 67.2483C54.1787 61.7017 54.0933 58.715 54.008 58.2883C53.24 55.3017 52.0027 52.955 50.296 51.2483C48.76 49.5417 46.84 48.3897 44.536 47.7923C43.9387 47.6217 40.952 47.4937 35.576 47.4083H27.512V63.6643C27.512 74.5017 27.5547 79.963 27.64 80.0483C27.9813 80.6457 31.1387 80.9443 37.112 80.9443H40.696V88.1123H39.288C39.3733 88.1123 36.0027 88.027 29.176 87.8563C23.288 87.771 17.4427 87.771 11.64 87.8563C4.81333 88.027 1.44266 88.1123 1.52799 88.1123H0.119995V80.9443H3.70399C9.67733 80.9443 12.8347 80.6457 13.176 80.0483V8.75233C12.8347 8.15499 9.67733 7.85632 3.70399 7.85632H0.119995V0.688324ZM44.024 7.98432H29.304C28.4507 8.06966 27.9387 8.28299 27.768 8.62432C27.5973 8.79499 27.512 14.299 27.512 25.1363V41.3923H35.832C41.8053 41.307 45.0907 41.2217 45.688 41.1363C50.2107 40.3683 53.5387 38.9177 55.672 36.7843C56.696 35.7603 57.5067 34.4377 58.104 32.8163C58.7013 31.1097 58.9573 28.2937 58.872 24.3683C58.872 21.2963 58.7867 19.3337 58.616 18.4803C58.1893 15.9203 57.2507 13.8723 55.8 12.3363C53.24 9.77632 49.3147 8.32566 44.024 7.98432Z"
            fill="#5D788F"
          />
        </svg>