<svg xmlns="http://www.w3.org/2000/svg" fill="none" viewBox="0 0 328 64">
  <path fill="#050505" fill-rule="evenodd" d="m266.4 34.5-13-15.1h-4.8v26.2h6.4V31l12.8 14.7h5V19.4h-6.4v15Zm-44 11.1h19.8v-5.5h-13.5v-4.8h11.7v-5.4h-11.7v-5h13.5v-5.5h-19.8v26.2Zm97.4-15.4-3.7-.8c-1.8-.4-3-1-3-2.6 0-.9.3-1.6 1-2a5 5 0 0 1 2.8-.8c2.5 0 4 1.1 4.4 3.4h6.4c-.2-2.1-1.7-8.6-11.2-8.6-3 0-5.7.8-7.5 2.3a7.7 7.7 0 0 0-3 6.2c0 4.1 2.5 6.6 7.7 7.7l4.3 1c2 .3 3 1.1 3 2.3 0 1.6-1.5 2.5-4 2.5-3 0-5.1-1.4-5.6-3.8H305c.4 3 1.7 5.4 4 7 2 1.4 4.7 2.2 7.9 2.2 6.6 0 10.8-3.4 10.8-8.5 0-4-2.3-6.3-7.9-7.5ZM278.2 25h8.5v20.6h6.3V25h8.4v-5.6h-23.2V25ZM201 33.6l-9.4-14.2h-4.7v26.2h6.3V32l6 9.4h3.6l6-9.3v13.5h6.4V19.4h-4.7L201 33.6ZM97.6 28.2c0-2.4-2.1-4.4-4.7-4.4-2.5 0-4.6 2-4.6 4.4 0 2.5 2 4.5 4.6 4.5 2.6 0 4.7-2 4.7-4.5Zm3-6.6a9.2 9.2 0 0 1 2.9 6.8c0 2-.7 3.9-2.3 6.3l-6.8 11h-7.2l5-8h-.1c-5.8-.3-9.8-4.1-9.8-9.2 0-5.6 4.5-9.7 10.6-9.7 3 0 5.7 1 7.7 2.8Zm60 24h19.8v-5.5H167v-4.8h11.7v-5.4H167v-5h13.4v-5.5h-19.8v26.2Zm-51 0h19.8v-5.5h-13.5v-4.8h11.8v-5.4h-11.8v-5h13.5v-5.5h-19.8v26.2Zm32.6-5.6h13v5.6h-19.4V19.4h6.4V40Z" clip-rule="evenodd"/>
  <path fill="#050505" d="M0 0h64v64H0z"/>
  <path fill="#fff" fill-rule="evenodd" d="m48.3 40-.2-.2c.2.1 1.6 1.2 1.7 1.1-.2 0-.6-.5-1.2-1a65 65 0 0 0-6.6-5.6l-5.7-5-2.1-1.7.4-.3.3-.2.3-.1c.2 0 .5-.2.4-.3l.3-.2.4-.2.1-.2h.1l1.4-1 .3-.3.5-.3c.1-.2.3-.2.4-.3l.2-.1.6-.5.6-.4h.1l.6-.4.4-.3.3-.2.3-.2c.2-.2.4-.4.7-.4l.1-.1a2.3 2.3 0 0 1 .3-.3l.2-.1.7-.5.7-.4.2-.1h.2l.8-.7a6.6 6.6 0 0 0 .8-.5c.2 0 .4-.2.6-.4l-1 .6-1.2.7.3-.3a10 10 0 0 0 1.5-1.2h.1c-.2-.2-.2-.2-.4 0L45 19.5l-.3.2-.4.2-1.3.8H43v-.2h.1a22 22 0 0 1 2-1.3l.7-.5 1.4-.8.1-.1H47a30.4 30.4 0 0 0 .5-.4c.2-.2.3-.3.5-.3V17h-.1a2.2 2.2 0 0 1-.3.2l-.2-.1.1-.2.4-.2.1-.1h-.2a1 1 0 0 1-.4.2 2 2 0 0 0-.6.1h-.2l-.2.2h-.3c.1 0 .2 0 .3-.2l.3-.3h-.1l-1 .5h-.2v-.2l.4-.2a3.2 3.2 0 0 0 .6-.3l.2-.2.6-.3.2-.2-1 .5-1 .5v-.1c.1 0 .1 0 0 0a1 1 0 0 1-.5.1l.2-.1s.2-.1.2-.3a11.3 11.3 0 0 1 .6-.3l.3-.2c.2 0 .4-.1.5-.3a1 1 0 0 0-.3.1l-.3.2.1-.1.3-.3h-.3v.1-.2H46c-.1.1-.3.2-.4.1l.2-.1.4-.3c-.3 0-.5 0-.6.2h-.2l-1.8 1-.5.3-2 1.1-.2.2-.4.2-.2.1-1.3.9-2.2 1.4-.4.2-1.2 1c-.2 0-.4.2-.5.3a14.8 14.8 0 0 0-.6.4 98.4 98.4 0 0 0-2.9 2l-.4.4-3.2-2.8-3.4-2.8-.3-.3-2.9-2.6-.2-.2c-.2-.2-.5-.5-.8-.6h-.5c-.4-.1-1.6 1.7-1.6 1.7l-.3.4c-.3.3-.7.7-.6 1.1 0 .7 1 1.5 1.7 2l.3.3 1.6 1.2 1.9 1.4.8.7 1.4 1.2 1.5 1.4.7.6.3.2-1 .8-.8.7-.4.3a101 101 0 0 0-3.5 3c-.2 0-.4.2-.5.4l-.4.3-.3.3-.2.2c0 .1-.2.3-.4.3l-.7.5-.1.2c-.4.2-.7.6-1 .9l-.2.2-.3.6v.3l.1 1c.2.5.3.8.2 1.2v.1c.1.5.5 1.3.6 1.4.1.1.2.3.4.3s.2 0 .2.3l.1-.1a2.7 2.7 0 0 0 .5-.4l.3-.2.3-.2c.3-.3 0-.2-.2 0-.2 0-.4.1 0-.1l.8-.8 1-.9 1-1 .7-.5 2.3-2 .2-.2.2-.1v.2a15.6 15.6 0 0 0 1.6-1.3l1.2-1.1.3-.2.2-.2.2-.1c.3-.3.8-.8 1.2-1l.3.2a61.3 61.3 0 0 0 1.8 1.7h.1c.3.2 1 1 1.1.9a13.2 13.2 0 0 1-1-1c.4 0 2.7 2 3 2.3.2-.3 1.2.6 1.4.8 1 1 2 1.8 3 2.6V38l-.1-.1-.2-.3-.2-.3 1.3 1 .6.5v-.3l.7.5c.2-.1.3 0 .4.1l.3.2 1.3 1 1 .6c-.2 0-.3-.2-.4-.3-.3-.3-.7-.6-.8-1v.1h.1l-2.4-2.3c.3-.2.6.1.8.4.2.2.3.4.5.3l-.4-.4c.2 0 .5.3.7.5v.1l.6.4.4.2.2.2c.2 0 .3.3.5.4.4.4.8.8 1 .8a.8.8 0 0 1-.2-.3l.5.4.8.6-.2-.3.2.2c.2.1.5.4.6.3.1-.1-.8-1-1.5-1.5l-.5-.4-.3-.4-.1-.1-.2-.4 1 .6 1.1.8-.7-.6-.8-.7.8.6 1.4 1Zm-1.1 5.4h.5c.2-.2-1-.3-1-.3H45.5c-.3 0-.6-.2-.7-.1h-.6l-.5.1h-4a702 702 0 0 1-22.5-.1l-.2.1v.2c-.2.1-.2.2-.2.3v.3l.1.4-.1.1c0 .1-.1.2 0 .4v1.9l.2.2v.1c0 .2.2.2.3.2h.1l1.2.1h1l2.4.1a185.8 185.8 0 0 0 21.6-.4H44.3l1.3-.3c.3 0 .4-.2.4-.3l.3-.1.2-.1c.1 0 .2-.4 0-.6l-.3-.1V47l.4-.1c.2 0 .4-.1 0-.2l.3-.1c.2 0 .4-.1.3-.2l-.2-.1c-.1-.2-.4-.4-.5-.3 0-.2.3-.3.5-.3.2-.1.4-.1 0-.2-.9 0-.3-.1.2-.2Z" clip-rule="evenodd"/>
</svg>
