<svg width="278" height="52" viewBox="0 0 278 52" fill="none" xmlns="http://www.w3.org/2000/svg">
<g clip-path="url(#clip0_2_35)">
<path fill-rule="evenodd" clip-rule="evenodd" d="M266.861 45.0108H261.755L250.615 17.2868H256.185L264.308 38.7205L272.43 17.2868H278L266.861 45.0108ZM227.872 28.0036H243.653C243.493 26.0597 242.574 24.2581 241.096 22.9923C239.617 21.7265 237.7 21.0992 235.763 21.2473C233.859 21.2363 232.015 21.9126 230.566 23.1528C229.118 24.3931 228.162 26.1147 227.872 28.0036V28.0036ZM236.227 45.9427C234.338 45.945 232.469 45.5617 230.732 44.8159C228.996 44.0701 227.429 42.9775 226.126 41.6045C224.824 40.2316 223.813 38.6069 223.156 36.8295C222.498 35.052 222.208 33.1589 222.303 31.2653C222.303 22.8782 228.104 16.5878 235.995 16.5878C243.885 16.5878 249.455 22.1792 249.455 31.7312V32.1972H227.872C227.86 34.5707 228.777 36.854 230.427 38.554C232.077 40.254 234.327 41.2343 236.691 41.2832C238.304 41.3073 239.889 40.8568 241.25 39.9874C242.61 39.118 243.688 37.8677 244.349 36.3907L248.991 38.7205C247.699 40.9583 245.834 42.8082 243.59 44.0782C241.345 45.3482 238.803 45.9919 236.227 45.9427V45.9427ZM203.737 45.9427C196.542 45.9427 190.509 39.4194 190.509 31.2653C190.509 23.1111 196.542 16.5878 203.737 16.5878C205.577 16.5511 207.4 16.9546 209.054 17.7648C210.709 18.575 212.148 19.7687 213.252 21.2473H213.484L213.252 17.5197V4.70612H218.357V45.0108H213.484V41.2832H213.252C212.132 42.7453 210.691 43.927 209.04 44.7355C207.389 45.544 205.574 45.9572 203.737 45.9427V45.9427ZM204.433 41.2832C209.539 41.2832 213.252 37.3226 213.252 31.2653C213.252 25.2079 209.539 21.2473 204.433 21.2473C203.193 21.306 201.977 21.614 200.857 22.1529C199.737 22.6919 198.736 23.4509 197.914 24.385C197.092 25.3191 196.465 26.4093 196.07 27.5911C195.675 28.7729 195.52 30.0223 195.614 31.2653C195.52 32.5082 195.675 33.7576 196.07 34.9394C196.465 36.1212 197.092 37.2114 197.914 38.1455C198.736 39.0796 199.737 39.8386 200.857 40.3776C201.977 40.9165 203.193 41.2245 204.433 41.2832ZM188.652 41.5161C188.65 42.0249 188.544 42.5279 188.342 42.9944C188.14 43.461 187.845 43.8814 187.476 44.2301C187.107 44.5788 186.672 44.8485 186.195 45.0227C185.719 45.197 185.213 45.2722 184.707 45.2437C183.706 45.2239 182.748 44.8315 182.019 44.1427C181.29 43.454 180.842 42.5179 180.761 41.5161C180.804 40.5006 181.24 39.542 181.978 38.8454C182.715 38.1487 183.694 37.7694 184.707 37.7886C185.213 37.7601 185.719 37.8353 186.195 38.0096C186.672 38.1838 187.107 38.4535 187.476 38.8022C187.845 39.1509 188.14 39.5713 188.342 40.0379C188.544 40.5044 188.65 41.0074 188.652 41.5161V41.5161ZM164.284 41.2832C165.525 41.2245 166.741 40.9165 167.86 40.3776C168.98 39.8386 169.981 39.0796 170.803 38.1455C171.625 37.2114 172.253 36.1212 172.648 34.9394C173.043 33.7576 173.198 32.5082 173.103 31.2653C173.198 30.0223 173.043 28.7729 172.648 27.5911C172.253 26.4093 171.625 25.3191 170.803 24.385C169.981 23.4509 168.98 22.6919 167.86 22.1529C166.741 21.614 165.525 21.306 164.284 21.2473C159.179 21.2473 155.466 25.4409 155.466 31.2653C155.466 37.0896 159.179 41.2832 164.284 41.2832ZM165.213 45.9427C163.372 45.9794 161.549 45.5759 159.895 44.7658C158.24 43.9556 156.802 42.7618 155.698 41.2832H155.466V45.0108H150.592V4.70612H155.698V17.5197L155.466 21.2473H155.698C156.78 19.7453 158.214 18.5344 159.874 17.7217C161.534 16.9089 163.367 16.5195 165.213 16.5878C172.407 16.5878 178.441 23.1111 178.441 31.2653C178.441 39.4194 172.407 45.9427 165.213 45.9427V45.9427ZM124.832 28.0036H140.613C140.453 26.0597 139.534 24.2581 138.055 22.9923C136.577 21.7265 134.66 21.0992 132.722 21.2473C130.819 21.2363 128.974 21.9126 127.526 23.1528C126.078 24.3931 125.121 26.1147 124.832 28.0036ZM133.187 45.9427C131.298 45.945 129.429 45.5617 127.692 44.8159C125.956 44.0701 124.389 42.9775 123.086 41.6045C121.783 40.2316 120.773 38.6069 120.115 36.8295C119.458 35.052 119.168 33.1589 119.262 31.2653C119.262 22.8782 125.064 16.5878 132.955 16.5878C140.845 16.5878 146.415 22.1792 146.415 31.7312V32.1972H124.832C124.819 34.5707 125.737 36.854 127.387 38.554C129.037 40.254 131.287 41.2343 133.651 41.2832C135.257 41.2756 136.828 40.8122 138.183 39.9465C139.538 39.0809 140.622 37.8482 141.309 36.3907L145.951 38.7205C144.659 40.9583 142.794 42.8082 140.549 44.0782C138.305 45.3482 135.763 45.9919 133.187 45.9427V45.9427ZM118.566 17.5197L109.747 45.2437H104.41L97.4474 24.043L90.7173 45.2437H85.3796L76.3287 17.5197H81.6664L87.7003 38.4875L94.4304 17.5197H99.7681L106.498 38.4875L112.532 17.5197H118.566Z" fill="#050505"/>
<path d="M-2.76776e-05 44.9176C-2.76776e-05 43.0639 0.733486 41.2862 2.03915 39.9754C3.34481 38.6647 5.11567 37.9283 6.96216 37.9283H44.7204C46.5946 37.9283 48.392 38.6758 49.7172 40.0062C51.0425 41.3366 51.787 43.141 51.787 45.0224C51.787 46.9039 51.0425 48.7083 49.7172 50.0387C48.392 51.3691 46.5946 52.1165 44.7204 52.1165H7.05498C6.11507 52.1295 5.18227 51.9513 4.31281 51.5927C3.44335 51.234 2.65524 50.7023 1.99601 50.0296C1.33677 49.3569 0.820047 48.5572 0.477 47.6786C0.133953 46.8 -0.0283171 45.8608 -2.76776e-05 44.9176V44.9176Z" fill="#C4C4C4"/>
<path fill-rule="evenodd" clip-rule="evenodd" d="M2.06545 2.09677C2.71421 1.42751 3.49 0.895548 4.34698 0.532313C5.20397 0.169078 6.12477 -0.0180664 7.05501 -0.0180664C7.98525 -0.0180664 8.90606 0.169078 9.76304 0.532313C10.62 0.895548 11.3958 1.42751 12.0446 2.09677L30.8889 20.991C32.2069 22.3223 32.9466 24.123 32.9466 26C32.9466 27.8769 32.2069 29.6777 30.8889 31.009L12.0446 49.9265C11.3893 50.5843 10.6115 51.1061 9.75534 51.4621C8.89923 51.8181 7.98166 52.0013 7.05501 52.0013C6.12836 52.0013 5.21079 51.8181 4.35468 51.4621C3.49857 51.1061 2.72069 50.5843 2.06545 49.9265C1.41021 49.2687 0.890443 48.4878 0.53583 47.6284C0.181217 46.7689 -0.00129947 45.8478 -0.00129946 44.9176C-0.00129945 43.9873 0.181217 43.0662 0.53583 42.2067C0.890443 41.3473 1.41021 40.5664 2.06545 39.9086L15.0615 26.8387C15.2826 26.616 15.4067 26.3144 15.4067 26C15.4067 25.6856 15.2826 25.384 15.0615 25.1613L2.06545 12.1613C1.39163 11.5093 0.855668 10.7276 0.489591 9.863C0.123514 8.99837 -0.0651627 8.06852 -0.0651627 7.12903C-0.0651627 6.18954 0.123514 5.25969 0.489591 4.39505C0.855668 3.53042 1.39163 2.74875 2.06545 2.09677V2.09677Z" fill="#050505"/>
<path d="M24.1124 37.7885L12.0446 49.9032C11.3893 50.561 10.6115 51.0828 9.75534 51.4388C8.89923 51.7948 7.98165 51.978 7.05501 51.978C6.12836 51.978 5.21078 51.7948 4.35467 51.4388C3.49856 51.0828 2.72068 50.561 2.06544 49.9032C1.4102 49.2454 0.890438 48.4645 0.535825 47.6051C0.181212 46.7456 -0.00130464 45.8245 -0.00130463 44.8942C-0.00130462 43.964 0.181212 43.0429 0.535825 42.1834C0.890438 41.324 1.4102 40.5431 2.06544 39.8853L4.13089 37.7885H24.1124Z" fill="#050505"/>
<path d="M44.7204 51.9767C48.6168 51.9767 51.7754 48.8058 51.7754 44.8943C51.7754 40.9827 48.6168 37.8118 44.7204 37.8118C40.824 37.8118 37.6654 40.9827 37.6654 44.8943C37.6654 48.8058 40.824 51.9767 44.7204 51.9767Z" fill="#050505"/>
</g>
<defs>
<clipPath id="clip0_2_35">
<rect width="278" height="52" fill="white"/>
</clipPath>
</defs>
</svg>
