<svg width="275" height="79" viewBox="0 0 275 79" fill="none" xmlns="http://www.w3.org/2000/svg">
<g clip-path="url(#clip0_2_41)">
<path d="M149 51.0592C149 59.6442 138.401 59.1347 138.401 59.1347H127.802V43.6221H138.401C149.308 43.5484 149 51.0592 149 51.0592ZM127.802 19.9643H135.879C144.265 20.4108 143.948 26.7045 143.948 26.7045C143.948 34.5258 134.675 34.6533 134.675 34.6533H127.802V19.9643ZM147.039 37.7038C147.039 37.7038 154.294 34.5879 154.229 26.3231C154.229 26.3231 155.332 12.7783 137.529 11.1263H117.773V67.909H140.418C140.418 67.909 159.338 67.9658 159.338 51.8875C159.338 51.8875 159.785 40.9458 147.039 37.7038ZM95.9126 0H179.087V79.0036H95.9126V0ZM53.0863 51.0592C53.0863 59.6442 42.4875 59.1347 42.4875 59.1347H31.8882V43.6221H42.4875C53.3957 43.5484 53.0863 51.0592 53.0863 51.0592ZM31.8882 19.9643H39.966C48.3527 20.4108 48.0353 26.7045 48.0353 26.7045C48.0353 34.5258 38.7626 34.6533 38.7626 34.6533H31.8882V19.9643V19.9643ZM51.1266 37.7038C51.1266 37.7038 58.3822 34.5879 58.3171 26.3231C58.3171 26.3231 59.4195 12.7783 41.6158 11.1263H21.8595V67.909H44.5055C44.5055 67.909 63.4257 67.9658 63.4257 51.8875C63.4257 51.8875 63.8715 40.9458 51.1266 37.7038ZM0 0H83.1746V79.0036H0V0ZM258.033 15.1971V25.6878C258.033 25.6878 247.874 19.3949 236.648 19.2682C236.648 19.2682 215.703 18.8538 214.759 39.5047C214.759 39.5047 214.003 58.496 236.395 59.5782C236.395 59.5782 245.791 60.7189 258.537 52.5261V63.3907C258.537 63.3907 241.439 73.6299 221.632 65.7435C221.632 65.7435 204.983 59.6151 204.348 39.5047C204.348 39.5047 203.656 18.8209 225.862 11.9548C225.862 11.9548 231.791 9.66655 242.448 10.6836C242.448 10.6833 248.817 11.3183 258.033 15.1971ZM191.825 79.0036H275V0H191.825V79.0036Z" fill="#050505"/>
</g>
<defs>
<clipPath id="clip0_2_41">
<rect width="275" height="79" fill="white"/>
</clipPath>
</defs>
</svg>
