<svg id="Layer_1" data-name="Layer 1" xmlns="http://www.w3.org/2000/svg" width="186" height="81" viewBox="0 0 186 81">
  <g id="Testing">
    <g id="logotype-Tomato-filled">
      <path id="Shape" d="M181.65,28.66a7.91,7.91,0,0,0-8.23.86l-14.08,11A7.84,7.84,0,1,0,169,52.87l1.4-1.12v3.32a10.22,10.22,0,0,1-20.43,0V35.7a7.69,7.69,0,0,0-12.47-6.18l-14.08,11a7.89,7.89,0,0,0-1.35,11h0a7.73,7.73,0,0,0,10.86,1.4l.06-.06,1.34-1.12v3.32a10.22,10.22,0,0,1-20.43,0V49.81a7.8,7.8,0,1,0-15.59.06h0v5.26a9.95,9.95,0,0,1-19.89,0V8.32a8.07,8.07,0,0,0-16.13,0V38.54A25.61,25.61,0,0,0,41.66,28.29H31.13V7.84A8.07,8.07,0,0,0,15,7.84V28.29H7.79a7.78,7.78,0,1,0,0,15.56H15V54.48A26.5,26.5,0,0,0,65.1,66.35,25.9,25.9,0,0,0,99.61,78.42a24.79,24.79,0,0,0,6.78-4.72,25.82,25.82,0,0,0,36,0A25.71,25.71,0,0,0,186,55.23V35.7A7.89,7.89,0,0,0,181.65,28.66ZM41.72,65.11A10.62,10.62,0,0,1,31.13,54.48V43.85H41.66a10.63,10.63,0,1,1,.06,21.26Z" fill="#050505"/>
      <circle id="Oval" cx="106.5" cy="25.5" r="7.5" fill="#050505"/>
    </g>
  </g>
</svg>
