<?xml version="1.0" encoding="utf-8"?>
<!-- Generator: Adobe Illustrator 25.3.1, SVG Export Plug-In . SVG Version: 6.00 Build 0)  -->
<svg version="1.1" id="Layer_1" xmlns="http://www.w3.org/2000/svg" xmlns:xlink="http://www.w3.org/1999/xlink" x="0px" y="0px"
	 viewBox="0 0 418.5 179.5" style="enable-background:new 0 0 418.5 179.5;" xml:space="preserve">
<style type="text/css">
	.st0{fill:#C4C4C4;}
	.st1{fill:#494949;}
	.st2{fill:#050505;}
</style>
<circle class="st0" cx="301.3" cy="28.1" r="7.5"/>
<circle class="st0" cx="301.3" cy="48.7" r="7.5"/>
<circle class="st0" cx="301.3" cy="69.2" r="7.5"/>
<circle class="st0" cx="301.3" cy="89.7" r="7.5"/>
<circle class="st0" cx="301.3" cy="130.9" r="7.5"/>
<circle class="st0" cx="301.3" cy="151.5" r="7.5"/>
<circle class="st0" cx="264.3" cy="48.6" r="7.5"/>
<circle class="st0" cx="264.3" cy="69.3" r="7.5"/>
<circle class="st0" cx="264.3" cy="89.7" r="7.5"/>
<circle class="st0" cx="264.3" cy="110.3" r="7.5"/>
<circle class="st0" cx="264.3" cy="130.8" r="7.5"/>
<circle class="st0" cx="283.3" cy="38.4" r="7.5"/>
<circle class="st0" cx="283.3" cy="59" r="7.5"/>
<circle class="st0" cx="283.3" cy="79.5" r="7.5"/>
<circle class="st0" cx="283.3" cy="100" r="7.5"/>
<circle class="st0" cx="283.3" cy="120.5" r="7.5"/>
<circle class="st0" cx="283.3" cy="141" r="7.5"/>
<circle class="st0" cx="411" cy="48.6" r="7.5"/>
<circle class="st0" cx="411" cy="69" r="7.5"/>
<circle class="st0" cx="411" cy="89.7" r="7.5"/>
<circle class="st0" cx="411" cy="110" r="7.5"/>
<circle class="st0" cx="411" cy="131" r="7.5"/>
<circle class="st0" cx="392.3" cy="38.4" r="7.5"/>
<circle class="st0" cx="392.3" cy="59" r="7.5"/>
<circle class="st0" cx="392.3" cy="79.5" r="7.5"/>
<circle class="st0" cx="392.3" cy="100" r="7.5"/>
<circle class="st0" cx="392.3" cy="120.5" r="7.5"/>
<circle class="st0" cx="392.3" cy="141" r="7.5"/>
<circle class="st0" cx="374.3" cy="28" r="7.5"/>
<circle class="st0" cx="374.3" cy="48.7" r="7.5"/>
<circle class="st0" cx="374.3" cy="69" r="7.5"/>
<circle class="st0" cx="374.3" cy="89.7" r="7.5"/>
<circle class="st0" cx="374.3" cy="110" r="7.5"/>
<circle class="st0" cx="374.3" cy="131" r="7.5"/>
<circle class="st0" cx="374.3" cy="151.5" r="7.5"/>
<circle class="st1" cx="301.3" cy="110" r="7.5"/>
<circle class="st0" cx="356.3" cy="18" r="7.5"/>
<circle class="st0" cx="356.3" cy="38" r="7.5"/>
<circle class="st0" cx="356.3" cy="59" r="7.5"/>
<circle class="st0" cx="356.3" cy="79" r="7.5"/>
<circle class="st0" cx="356.3" cy="100" r="7.5"/>
<circle class="st0" cx="356.3" cy="120.5" r="7.5"/>
<circle class="st0" cx="356.3" cy="141" r="7.5"/>
<circle class="st0" cx="356.3" cy="161.6" r="7.5"/>
<circle class="st0" cx="337.8" cy="7.5" r="7.5"/>
<circle class="st0" cx="337.8" cy="28" r="7.5"/>
<circle class="st0" cx="337.8" cy="48.6" r="7.5"/>
<circle class="st0" cx="337.8" cy="69" r="7.5"/>
<circle class="st0" cx="337.8" cy="90" r="7.5"/>
<circle class="st0" cx="337.8" cy="110.3" r="7.5"/>
<circle class="st0" cx="337.8" cy="131" r="7.5"/>
<circle class="st0" cx="337.8" cy="151.4" r="7.5"/>
<circle class="st0" cx="319.3" cy="17.7" r="7.5"/>
<circle class="st0" cx="319.3" cy="38.3" r="7.5"/>
<circle class="st0" cx="319.3" cy="58.8" r="7.5"/>
<circle class="st0" cx="319.3" cy="79.4" r="7.5"/>
<circle class="st0" cx="319.3" cy="100" r="7.5"/>
<circle class="st0" cx="319.3" cy="120.5" r="7.5"/>
<circle class="st0" cx="319.3" cy="141" r="7.5"/>
<circle class="st0" cx="319.3" cy="161.6" r="7.5"/>
<circle class="st0" cx="337.8" cy="172" r="7.5"/>
<path class="st2" d="M42.6,111.4H7.5V91.8h31.8v-7.4H7.5V66.7h34.3v-7.2H0.3v59.1h42.3C42.6,118.6,42.6,111.4,42.6,111.4z
	 M110.7,118.6V59.5h-10.6c0,0-2.4,6-2.6,6.7l-14.1,42.6h-0.2L69,66.2c-0.2-0.7-2.6-6.7-2.6-6.7H55.7v59.1H63v-35
	c0-1.7-0.2-8.7-0.2-14.2H63l16.2,49.2h8l16.2-49.2h0.2c0,5.6-0.2,49.2-0.2,49.2S110.7,118.6,110.7,118.6z M132,66.1h14.9
	c9,0,12.7,3.2,12.7,8.7c0,7.3-5,9.4-12.7,9.4H132V66.1z M124.7,118.6h25.2c13.2,0,19.5-7.8,19.5-17.3c0-10.2-6.1-13-10-14.6
	c6.6-3.1,7.1-8.5,7.1-12.4c0-8.2-4.9-14.8-16-14.8h-25.8C124.7,59.5,124.7,118.6,124.7,118.6z M132,91h16.1
	c6.6,0,14.2,1.7,14.2,10.1c0,6.6-4.5,10.9-12.9,10.9H132V91z M188.9,59.5h-7.8v59.1H220v-7.4h-31.1V59.5z"/>
</svg>
