<?xml version="1.0" encoding="UTF-8"?>
<svg viewBox="0 0 758 760" version="1.1" xmlns="http://www.w3.org/2000/svg" xmlns:xlink="http://www.w3.org/1999/xlink">
    <!-- Generator: Sketch 50.2 (55047) - http://www.bohemiancoding.com/sketch -->
    <title>s24 logo Black</title>
    <desc>Created with Sketch.</desc>
    <defs></defs>
    <g id="Page-1" stroke="none" stroke-width="1" fill="none" fill-rule="evenodd">
        <g id="Artboard" transform="translate(0.000000, -1006.000000)" fill="#000000" fill-rule="nonzero">
            <g id="s24-logo-Black" transform="translate(0.000000, 1006.000000)">
                <g id="logo/s24-proposed" transform="translate(1.000000, 256.000000)">
                    <g id="Logo/mark/A-Copy-8">
                        <path d="M756.988911,337.818174 L638.80528,503.913294 C622.304196,497.502683 610.814107,483.785752 610.814107,467.996816 L610.814107,412.314475 L433.678832,412.314475 C403.35217,412.314475 379.228689,385.799075 379.228689,351.991939 C379.228689,336.745583 384.053385,322.824999 392.324294,312.218838 L597.02926,24.5267453 C607.367894,9.94327512 626.66668,0 648.722433,0 C681.806065,0 708.686515,21.8752053 708.686515,49.0534905 L708.686515,328.790964 L732.120753,328.790964 C741.515611,328.790964 750.160126,332.15866 756.988911,337.818174 Z M612.222558,148.908951 L491.605153,329.213673 L612.222558,329.213673 L612.222558,148.908951 Z" id="Combined-Shape-Copy-3"></path>
                        <g id="2-copy-6" transform="translate(0.152297, 0.000000)">
                            <path d="M309.35912,429.778375 L269.272764,490.557369 C265.975996,494.784964 262.944752,499.08034 260.499458,503.688621 L59.5696407,503.688621 C32.1813001,503.688621 9.58591919,478.077336 9.58591919,446.555752 C9.58591919,426.198065 19.1718384,408.467173 32.8660087,397.959979 L233.485603,221.307777 C251.288025,204.233587 262.243361,185.189297 262.243361,161.54811 C262.243361,117.549235 226.638517,82.7441542 180.763047,82.7441542 C134.887577,82.7441542 99.2827345,124.116231 99.2827345,168.115107 C99.2827345,190.442894 76.6873536,208.830485 49.2990129,208.830485 C21.9106725,208.830485 1.1056045e-11,190.442894 1.1056045e-11,168.115107 C1.1056045e-11,70.9235607 79.4261876,0 180.763047,0 C281.415199,0 363.580221,64.3565643 363.580221,161.54811 C363.580221,212.113983 332.08363,257.426258 294.424661,288.291141 L140.365245,420.944468 L284.536887,420.944468 C293.923984,420.944468 302.557019,424.198949 309.35912,429.778375 Z" id="Combined-Shape"></path>
                        </g>
                    </g>
                </g>
                <g id="Studio">
                    <path d="M43.5038009,131 C36.5868439,131 29.3059459,130.090287 21.6608883,128.270833 C14.0158306,126.45138 6.79560676,123.964831 0,120.811111 L0,100.797222 C15.4114653,109.288005 29.5485423,113.533333 42.4116552,113.533333 C49.6926624,113.533333 55.4870437,111.89585 59.794973,108.620833 C64.1029023,105.345817 66.2568347,100.857899 66.2568347,95.1569444 C66.2568347,91.0328497 65.0736888,87.6062637 62.7073613,84.8770833 C60.341034,82.147903 57.3680007,79.9645915 53.7881721,78.3270833 C50.2083435,76.6895752 45.3240744,74.7791776 39.1352183,72.5958333 C31.2474604,69.8060046 24.8766746,67.1375127 20.0226699,64.5902778 C15.168665,62.0430427 11.0124857,58.4345141 7.55400725,53.7645833 C4.09552881,49.0946525 2.36631552,43.0602223 2.36631552,35.6611111 C2.36631552,24.6230929 6.27979821,15.9201708 14.106881,9.55208333 C21.9339638,3.18399593 32.521603,0 45.8701164,0 C52.1803226,0 58.3690859,0.697446729 64.436592,2.09236111 C70.504098,3.48727549 76.146794,5.51896814 81.3648491,8.1875 L81.3648491,27.6555556 C69.229837,20.862929 57.459052,17.4666667 46.0521406,17.4666667 C38.6497833,17.4666667 32.8554018,18.8918839 28.6688227,21.7423611 C24.4822435,24.5928383 22.3889854,28.5046047 22.3889854,33.4777778 C22.3889854,36.9953879 23.4811201,39.9671175 25.6654223,42.3930556 C27.8497244,44.8189936 30.6103983,46.7900387 33.9475265,48.30625 C37.2846549,49.8224613 41.8655532,51.6115638 47.690359,53.6736111 C55.820817,56.5847368 62.4342996,59.3745237 67.5310045,62.0430556 C72.6277097,64.7115874 77.0265855,68.5627063 80.7277643,73.5965278 C84.4289428,78.6303492 86.3401786,85.0893124 86.4615287,92.9736111 C86.4615287,104.618114 82.548046,113.866864 74.7209632,120.720139 C66.8938805,127.573414 56.4882637,131 43.5038009,131 Z M162.062276,20.9236111 L124.7473,20.9236111 L124.7473,2.18333333 L219.035872,2.18333333 L219.035872,20.9236111 L181.720897,20.9236111 L181.720897,128.816667 L162.062276,128.816667 L162.062276,20.9236111 Z M313.567144,131 C297.548928,131 285.050053,126.117873 276.070144,116.353472 C267.090234,106.589072 262.600348,93.2769362 262.600348,76.4166667 L262.600348,2.18333333 L282.258969,2.18333333 L282.258969,75.8708333 C282.258969,87.8792266 284.958969,97.1279768 290.359049,103.617361 C295.759129,110.106745 303.495084,113.351389 313.567144,113.351389 C323.639203,113.351389 331.375157,110.076422 336.775238,103.526389 C342.175319,96.9763561 344.875318,87.7579298 344.875318,75.8708333 L344.875318,2.18333333 L364.53394,2.18333333 L364.53394,76.4166667 C364.53394,93.2769362 360.044053,106.589072 351.064143,116.353472 C342.084235,126.117873 329.585359,131 313.567144,131 Z M462.523672,2.18333333 C481.696992,2.18333333 496.471146,7.79323093 506.846582,19.0131944 C517.222017,30.233158 522.409657,45.7286049 522.409657,65.5 C522.409657,85.2713951 517.222017,100.766842 506.846582,111.986806 C496.471146,123.206769 481.696992,128.816667 462.523672,128.816667 L417.927726,128.816667 L417.927726,2.18333333 L462.523672,2.18333333 Z M463.251769,110.804167 C475.629481,110.804167 485.094649,106.862076 491.647555,98.9777778 C498.200462,91.093479 501.476866,79.9343315 501.476866,65.5 C501.476866,51.0656685 498.200462,39.9065208 491.647555,32.0222222 C485.094649,24.1379235 475.629481,20.1958333 463.251769,20.1958333 L437.586346,20.1958333 L437.586346,110.804167 L463.251769,110.804167 Z M570.706764,2.18333333 L590.365385,2.18333333 L590.365385,128.816667 L570.706764,128.816667 L570.706764,2.18333333 Z" id="Shape"></path>
                    <path d="M698.234615,131 C685.760724,131 675.01275,128.301184 665.990373,122.903472 C656.967995,117.50576 650.125624,109.86417 645.463052,99.9784722 C640.800482,90.0927747 638.469231,78.6000655 638.469231,65.5 C638.469231,52.3999345 640.800482,40.9072253 645.463052,31.0215278 C650.125624,21.1358302 656.967995,13.4942399 665.990373,8.09652778 C675.01275,2.6988156 685.760724,0 698.234615,0 C710.708507,0 721.45648,2.6988156 730.478858,8.09652778 C739.501236,13.4942399 746.343607,21.1358302 751.006179,31.0215278 C755.668749,40.9072253 758,52.3999345 758,65.5 C758,78.6000655 755.668749,90.0927747 751.006179,99.9784722 C746.343607,109.86417 739.501236,117.50576 730.478858,122.903472 C721.45648,128.301184 710.708507,131 698.234615,131 Z M698.234615,112.9875 C710.708507,112.9875 720.305992,108.772496 727.027362,100.342361 C733.74873,91.9122264 737.109364,80.2982221 737.109364,65.5 C737.109364,50.7017779 733.74873,39.0877736 727.027362,30.6576389 C720.305992,22.2275042 710.708507,18.0125 698.234615,18.0125 C685.760724,18.0125 676.163238,22.2275042 669.441869,30.6576389 C662.720501,39.0877736 659.359867,50.7017779 659.359867,65.5 C659.359867,80.2982221 662.720501,91.9122264 669.441869,100.342361 C676.163238,108.772496 685.760724,112.9875 698.234615,112.9875 Z" id="Combined-Shape"></path>
                </g>
            </g>
        </g>
    </g>
</svg>