<svg width="146" height="97" viewBox="0 0 146 97" fill="none" xmlns="http://www.w3.org/2000/svg">
<path d="M146 0H0V96.7199H146V0Z" fill="#fafafa"/>
<path d="M145.718 0H0V2.23262H145.718V0Z" fill="#050505"/>
<path d="M145.718 94.7654H0V96.998H145.718V94.7654Z" fill="#050505"/>
<path d="M40.8577 17.7622L52.5357 57.2159L64.2136 17.7622H72.6695H95.8733V21.6834L83.9541 42.0893C88.1414 43.4252 91.3088 45.8533 93.4562 49.3735C95.6036 52.8937 96.6784 57.0285 96.6784 61.7758C96.6784 67.6455 95.1089 72.5802 91.9678 76.582C88.8268 80.5838 84.7591 82.5827 79.7667 82.5827C76.0072 82.5827 72.7323 81.3959 69.9421 79.0222C67.1499 76.6485 65.0836 73.4346 63.7412 69.3784L70.3436 66.6582C71.3109 69.1124 72.5863 71.0468 74.17 72.4593C75.7537 73.8739 77.6193 74.5791 79.7667 74.5791C82.0216 74.5791 83.9277 73.3258 85.485 70.8191C87.0424 68.3105 87.821 65.298 87.821 61.7758C87.821 57.8808 86.9876 54.8664 85.3248 52.7325C83.3903 50.2258 80.3568 48.9725 76.2221 48.9725H73.002V45.1319L84.2785 25.7638H70.6681L69.8934 27.0735L53.3407 82.5827H52.5357L40.4542 42.4117L28.3727 82.5847H27.5676L8.24089 17.7622H16.6967L28.3747 57.2159L36.2688 30.6481L32.4039 17.7622H40.8577V17.7622Z" fill="#050505"/>
<path fill-rule="evenodd" clip-rule="evenodd" d="M139.819 17.7622C138.159 17.7622 136.668 18.3566 135.539 19.4971C134.34 20.7061 133.673 22.2698 133.673 23.8858C133.673 25.5018 134.308 26.999 135.472 28.1737C136.654 29.3646 138.177 30.0114 139.821 30.0114C141.429 30.0114 142.989 29.3646 144.203 28.1918C145.367 27.0695 146 25.5703 146 23.8858C146 22.2516 145.349 20.7222 144.22 19.5818C143.037 18.3909 141.496 17.7622 139.819 17.7622ZM145.179 23.9382C145.179 25.3507 144.629 26.6604 143.619 27.6297C142.559 28.6513 141.241 29.1953 139.785 29.1953C138.416 29.1953 137.064 28.6351 136.054 27.6135C135.044 26.5939 134.478 25.2822 134.478 23.8878C134.478 22.4934 135.06 21.1313 136.104 20.0774C137.08 19.0901 138.398 18.5642 139.836 18.5642C141.308 18.5642 142.626 19.1102 143.654 20.146C144.647 21.1313 145.179 22.4592 145.179 23.9382ZM139.992 20.2971H137.356V27.2387H138.674V24.2787H139.975L141.397 27.2387H142.869L141.31 24.0732C142.32 23.8697 142.902 23.1886 142.902 22.2033C142.902 20.9439 141.942 20.2971 139.992 20.2971ZM139.75 21.1474C140.983 21.1474 141.547 21.4879 141.547 22.3383C141.547 23.1543 140.983 23.4445 139.783 23.4445H138.67V21.1474H139.75V21.1474Z" fill="#050505"/>
<path d="M129.451 17.3975L130.822 25.6731L125.974 34.8917C125.974 34.8917 124.112 30.9806 121.02 28.8165C118.414 26.9929 116.717 26.596 114.062 27.14C110.654 27.8392 106.789 31.8894 105.102 36.8826C103.084 42.857 103.064 45.7485 102.993 48.4043C102.879 52.662 103.555 55.1787 103.555 55.1787C103.555 55.1787 100.612 49.7665 100.639 41.8395C100.657 36.1813 101.553 31.0512 104.187 25.9875C106.505 21.5363 109.95 18.8644 113.008 18.5501C116.169 18.2257 118.668 19.7389 120.598 21.3792C122.624 23.1 124.674 26.86 124.674 26.86L129.451 17.3975Z" fill="#050505"/>
<path d="M130.05 64.2221C130.05 64.2221 127.906 68.0284 126.572 69.4953C125.236 70.9622 122.847 73.5455 119.896 74.8371C116.944 76.1287 115.399 76.3725 112.483 76.0944C109.569 75.8164 106.86 74.1399 105.911 73.4407C104.962 72.7415 102.537 70.6822 101.168 68.7619C99.7971 66.8395 97.6537 63.001 97.6537 63.001C97.6537 63.001 98.8481 66.8516 99.5963 68.4838C100.026 69.4228 101.348 72.3002 103.226 74.8028C104.974 77.1382 108.375 81.1581 113.539 82.0649C118.704 82.9736 122.253 80.6685 123.131 80.1083C124.009 79.5502 125.86 78.0107 127.032 76.7654C128.255 75.4658 129.413 73.8074 130.054 72.812C130.522 72.0866 131.284 70.6116 131.284 70.6116L130.05 64.2221Z" fill="#050505"/>
</svg>
